<svg xmlns="http://www.w3.org/2000/svg" viewBox="0 0 170.08 172.37"><g id="Capa_2" data-name="Capa 2"><path d="M169,102.42a5.17,5.17,0,0,0-4.09-2H136.29L116.15,53.84a5.2,5.2,0,0,0-4.77-3.13h-4.84a5.21,5.21,0,0,0-4.77,3.13l-15.57,36-15.58-36a5.21,5.21,0,0,0-4.77-3.13H61a5.2,5.2,0,0,0-4.77,3.13L31.06,112.07a5.2,5.2,0,0,0,4.77,7.26h4.84a5.19,5.19,0,0,0,4.77-3.13l18-41.6,18,41.6a5.2,5.2,0,0,0,9.54,0l18-41.59,16.15,37.49a5.2,5.2,0,0,0,4.28,3.12,6.17,6.17,0,0,0,.86,0h21A71.28,71.28,0,1,1,154,64.78a5.21,5.21,0,0,0,5,3.64h4.68a5.2,5.2,0,0,0,5.13-6L168.6,61a5.06,5.06,0,0,0-.18-.77,86.18,86.18,0,1,0,1.51,46.62A5.2,5.2,0,0,0,169,102.42Z"/></g></svg>